<?xml version="1.0" standalone="no"?><!DOCTYPE svg PUBLIC "-//W3C//DTD SVG 1.1//EN" "http://www.w3.org/Graphics/SVG/1.1/DTD/svg11.dtd"><svg height="500" node-id="1" sillyvg="true" template-height="500" template-width="500" version="1.1" viewBox="0 0 500 500" width="500" xmlns="http://www.w3.org/2000/svg" xmlns:xlink="http://www.w3.org/1999/xlink"><defs node-id="51"><linearGradient gradientUnits="objectBoundingBox" id="SVGID_1_" node-id="4" spreadMethod="pad" x1="488.4213" x2="523.8239" y1="1910.2151" y2="1945.6178"><stop offset="0" stop-color="#4061f2"></stop><stop offset="0.5901" stop-color="#2e5bfb"></stop><stop offset="1" stop-color="#bac7ff"></stop></linearGradient><linearGradient gradientUnits="objectBoundingBox" id="SVGID_2_" node-id="10" spreadMethod="pad" x1="543.6196" x2="565.599" y1="1868.44" y2="1890.4193"><stop offset="0" stop-color="#506cf6"></stop><stop offset="1" stop-color="#2e54ed"></stop></linearGradient><linearGradient gradientUnits="objectBoundingBox" id="SVGID_3_" node-id="15" spreadMethod="pad" x1="512.7448" x2="556.79" y1="1876.1571" y2="1920.2023"><stop offset="0" stop-color="#4f7cfd"></stop><stop offset="1" stop-color="#4a69ff"></stop></linearGradient><linearGradient gradientUnits="objectBoundingBox" id="SVGID_4_" node-id="21" spreadMethod="pad" x1="412.9091" x2="488.4151" y1="1946.6294" y2="2022.1354"><stop offset="0" stop-color="#ff907e"></stop><stop offset="1" stop-color="#f16e4f"></stop></linearGradient><clipPath id="SVGID_6__12" node-id="30"><path d="M 395.80 450.20 L 462.90 416.00 L 378.90 253.10 L 370.50 248.20 L 366.50 246.30 L 356.60 242.60 L 351.30 241.20 L 347.60 240.60 L 340.40 240.30 L 336.90 240.70 L 333.50 241.60 L 330.20 242.90 L 327.20 244.80 L 324.60 247.00 L 322.30 249.40 L 320.20 252.20 L 317.00 258.10 L 315.20 262.80 L 312.90 272.00 L 312.30 276.00 L 311.80 284.60 L 395.80 450.20 Z" fill="#000000" fill-rule="nonzero" node-id="80" stroke="none" target-height="209.90001" target-width="151.1" target-x="311.8" target-y="240.3"></path></clipPath><clipPath id="SVGID_6__11" node-id="30"><path d="M 489.60 395.20 L 455.40 328.00 L 292.50 412.00 L 287.70 420.50 L 285.70 424.50 L 282.00 434.30 L 280.60 439.70 L 280.00 443.40 L 279.70 450.60 L 280.10 454.10 L 281.00 457.50 L 282.40 460.80 L 284.20 463.80 L 286.40 466.40 L 288.90 468.70 L 291.60 470.70 L 297.50 474.00 L 302.30 475.80 L 311.50 478.00 L 315.40 478.60 L 324.00 479.20 L 489.60 395.20 Z" fill="#000000" fill-rule="nonzero" node-id="80" stroke="none" target-height="151.20001" target-width="209.9" target-x="279.7" target-y="328"></path></clipPath><clipPath id="SVGID_6__10" node-id="30"><path d="M 490.70 362.60 L 456.50 295.50 L 293.60 379.50 L 288.70 387.90 L 286.80 391.90 L 283.10 401.80 L 281.70 407.10 L 281.00 410.80 L 280.80 418.00 L 281.20 421.50 L 282.10 424.90 L 283.40 428.20 L 285.30 431.20 L 287.50 433.80 L 289.90 436.10 L 292.70 438.20 L 298.60 441.40 L 303.30 443.20 L 312.50 445.50 L 316.50 446.10 L 325.10 446.60 L 490.70 362.60 Z" fill="#000000" fill-rule="nonzero" node-id="80" stroke="none" target-height="151.1" target-width="209.90002" target-x="280.8" target-y="295.5"></path></clipPath><clipPath id="SVGID_6__9" node-id="30"><path d="M 492.90 332.40 L 458.60 265.30 L 295.70 349.30 L 290.90 357.70 L 289.00 361.70 L 285.20 371.60 L 283.80 376.90 L 283.20 380.60 L 282.90 387.80 L 283.30 391.30 L 284.20 394.70 L 285.60 398.00 L 287.50 401.00 L 289.60 403.60 L 292.10 405.90 L 294.80 408.00 L 300.80 411.20 L 305.50 413.00 L 314.70 415.30 L 318.70 415.90 L 327.30 416.40 L 492.90 332.40 Z" fill="#000000" fill-rule="nonzero" node-id="80" stroke="none" target-height="151.1" target-width="210" target-x="282.9" target-y="265.3"></path></clipPath><clipPath id="SVGID_6__8" node-id="30"><path d="M 492.80 298.60 L 458.60 231.50 L 295.70 315.50 L 290.90 323.90 L 288.90 328.00 L 285.20 337.80 L 283.80 343.20 L 283.20 346.80 L 282.90 354.00 L 283.30 357.60 L 284.20 361.00 L 285.60 364.20 L 287.40 367.20 L 289.60 369.90 L 292.10 372.20 L 294.80 374.20 L 300.70 377.40 L 305.50 379.20 L 314.70 381.50 L 318.60 382.10 L 327.20 382.70 L 492.80 298.60 Z" fill="#000000" fill-rule="nonzero" node-id="80" stroke="none" target-height="151.20001" target-width="209.9" target-x="282.9" target-y="231.5"></path></clipPath><clipPath id="SVGID_6__7" node-id="30"><path d="M 494.00 263.80 L 459.80 196.60 L 296.80 280.60 L 292.00 289.00 L 290.10 293.10 L 286.30 302.90 L 285.00 308.30 L 284.30 311.90 L 284.00 319.10 L 284.50 322.70 L 285.40 326.10 L 286.70 329.30 L 288.60 332.30 L 290.70 335.00 L 293.20 337.30 L 296.00 339.30 L 301.90 342.50 L 306.60 344.40 L 315.80 346.60 L 319.80 347.20 L 328.40 347.80 L 494.00 263.80 Z" fill="#000000" fill-rule="nonzero" node-id="80" stroke="none" target-height="151.19998" target-width="210" target-x="284" target-y="196.6"></path></clipPath><clipPath id="SVGID_6_" node-id="30"><path d="M 451.10 425.00 L 490.70 360.90 L 334.30 265.30 L 324.60 265.50 L 320.20 266.00 L 309.80 267.90 L 304.50 269.50 L 301.10 270.80 L 294.70 274.30 L 291.90 276.50 L 289.50 279.00 L 287.40 281.90 L 285.80 285.00 L 284.70 288.30 L 284.00 291.60 L 283.70 295.00 L 284.00 301.70 L 284.90 306.70 L 287.80 315.80 L 289.30 319.40 L 293.30 327.10 L 451.10 425.00 Z" fill="#000000" fill-rule="nonzero" node-id="80" stroke="none" target-height="159.70001" target-width="207" target-x="283.7" target-y="265.3"></path></clipPath><clipPath id="SVGID_8__12" node-id="42"><path d="M 139.10 291.50 L 206.20 257.30 L 122.20 94.30 L 113.80 89.50 L 109.70 87.60 L 99.90 83.90 L 94.50 82.50 L 90.90 81.80 L 83.70 81.60 L 80.10 82.00 L 76.70 82.90 L 73.50 84.20 L 70.50 86.10 L 67.80 88.30 L 65.50 90.70 L 63.50 93.50 L 60.30 99.40 L 58.50 104.10 L 56.20 113.30 L 55.60 117.30 L 55.00 125.90 L 139.10 291.50 Z" fill="#000000" fill-rule="nonzero" node-id="84" stroke="none" target-height="209.9" target-width="151.2" target-x="55" target-y="81.6"></path></clipPath><clipPath id="SVGID_8__11" node-id="42"><path d="M 102.10 162.60 L 67.90 95.40 L -95.10 179.40 L -99.90 187.90 L -101.80 191.90 L -105.50 201.70 L -106.90 207.10 L -107.60 210.80 L -107.80 218.00 L -107.40 221.50 L -106.50 224.90 L -105.20 228.20 L -103.30 231.20 L -101.10 233.80 L -98.70 236.10 L -95.90 238.10 L -90.00 241.40 L -85.30 243.20 L -76.10 245.40 L -72.10 246.00 L -63.50 246.60 L 102.10 162.60 Z" fill="#000000" fill-rule="nonzero" node-id="84" stroke="none" target-height="151.20001" target-width="209.9" target-x="-107.8" target-y="95.4"></path></clipPath><clipPath id="SVGID_8__10" node-id="42"><path d="M 160.00 164.50 L 125.70 97.40 L -37.20 181.40 L -42.00 189.80 L -43.90 193.80 L -47.70 203.70 L -49.10 209.00 L -49.70 212.70 L -50.00 219.90 L -49.60 223.40 L -48.70 226.80 L -47.30 230.10 L -45.40 233.10 L -43.30 235.70 L -40.80 238.00 L -38.10 240.00 L -32.10 243.30 L -27.40 245.10 L -18.20 247.40 L -14.20 248.00 L -5.60 248.50 L 160.00 164.50 Z" fill="#000000" fill-rule="nonzero" node-id="84" stroke="none" target-height="151.1" target-width="210" target-x="-50" target-y="97.4"></path></clipPath><clipPath id="SVGID_8__9" node-id="42"><path d="M 213.60 168.30 L 179.40 101.20 L 16.50 185.20 L 11.70 193.60 L 9.70 197.70 L 6.00 207.50 L 4.60 212.90 L 4.00 216.50 L 3.70 223.70 L 4.10 227.30 L 5.00 230.70 L 6.40 233.90 L 8.20 236.90 L 10.40 239.60 L 12.90 241.90 L 15.60 243.90 L 21.60 247.10 L 26.30 248.90 L 35.50 251.20 L 39.40 251.80 L 48.00 252.40 L 213.60 168.30 Z" fill="#000000" fill-rule="nonzero" node-id="84" stroke="none" target-height="151.2" target-width="209.90001" target-x="3.7" target-y="101.2"></path></clipPath><clipPath id="SVGID_8__8" node-id="42"><path d="M 273.60 168.30 L 239.40 101.10 L 76.50 185.10 L 71.70 193.60 L 69.70 197.60 L 66.00 207.40 L 64.60 212.80 L 64.00 216.50 L 63.70 223.70 L 64.10 227.20 L 65.00 230.60 L 66.40 233.90 L 68.20 236.90 L 70.40 239.50 L 72.90 241.80 L 75.60 243.80 L 81.60 247.10 L 86.30 248.90 L 95.50 251.10 L 99.40 251.70 L 108.10 252.30 L 273.60 168.30 Z" fill="#000000" fill-rule="nonzero" node-id="84" stroke="none" target-height="151.20001" target-width="209.90001" target-x="63.7" target-y="101.1"></path></clipPath><clipPath id="SVGID_8__7" node-id="42"><path d="M 335.60 170.30 L 301.40 103.20 L 138.50 187.20 L 133.70 195.60 L 131.80 199.70 L 128.00 209.50 L 126.60 214.90 L 126.00 218.50 L 125.70 225.70 L 126.10 229.30 L 127.00 232.70 L 128.40 235.90 L 130.20 238.90 L 132.40 241.60 L 134.90 243.90 L 137.60 245.90 L 143.60 249.10 L 148.30 250.90 L 157.50 253.20 L 161.40 253.80 L 170.10 254.40 L 335.60 170.30 Z" fill="#000000" fill-rule="nonzero" node-id="84" stroke="none" target-height="151.2" target-width="209.90001" target-x="125.7" target-y="103.2"></path></clipPath><clipPath id="SVGID_8_" node-id="42"><path d="M 49.00 94.10 L 9.40 158.20 L 165.80 253.80 L 175.50 253.60 L 179.90 253.10 L 190.30 251.20 L 195.60 249.60 L 199.00 248.30 L 205.30 244.80 L 208.20 242.60 L 210.60 240.00 L 212.70 237.20 L 214.30 234.00 L 215.40 230.80 L 216.10 227.50 L 216.40 224.10 L 216.10 217.40 L 215.20 212.40 L 212.30 203.30 L 210.80 199.60 L 206.80 192.00 L 49.00 94.10 Z" fill="#000000" fill-rule="nonzero" node-id="84" stroke="none" target-height="159.70001" target-width="207" target-x="9.4" target-y="94.1"></path></clipPath></defs><path d="M 202.30 231.30 L 203.50 229.70 L 205.00 228.60 L 206.80 227.90 L 208.70 227.70 L 210.50 228.00 L 212.40 228.80 L 301.00 282.60 L 302.50 283.90 L 303.60 285.40 L 304.30 287.20 L 304.50 289.00 L 304.30 290.90 L 303.50 292.70 L 302.20 294.30 L 300.70 295.40 L 298.90 296.10 L 297.00 296.30 L 295.20 296.00 L 293.40 295.20 L 204.70 241.40 L 203.20 240.10 L 202.10 238.60 L 201.40 236.80 L 201.20 235.00 L 201.50 233.10 L 202.30 231.30 Z" fill="#2f54e8" fill-rule="nonzero" node-id="90" stroke="none" target-height="68.59999" target-width="103.3" target-x="201.2" target-y="227.7"></path><path d="M 250.20 310.00 L 207.40 284.00 L 251.40 211.60 L 294.20 237.60 Z" fill="url(#SVGID_1_)" fill-rule="nonzero" node-id="92" stroke="none" target-height="98.399994" target-width="86.80002" target-x="207.4" target-y="211.6"></path><g node-id="181"><path d="M 222.40 283.40 L 243.90 296.40 L 229.70 319.70 L 208.20 306.70 Z" fill="#8497f7" fill-rule="nonzero" group-id="1" node-id="96" stroke="none" target-height="36.30002" target-width="35.699997" target-x="208.2" target-y="283.4"></path></g><path d="M 290.20 226.00 L 263.60 209.80 L 282.70 178.40 L 309.30 194.50 Z" fill="url(#SVGID_2_)" fill-rule="nonzero" node-id="99" stroke="none" target-height="47.600006" target-width="45.69998" target-x="263.6" target-y="178.4"></path><path d="M 290.30 244.10 L 247.50 218.10 L 248.60 197.20 L 306.60 233.20 Z" fill="#779bff" fill-rule="nonzero" node-id="101" stroke="none" target-height="46.90001" target-width="59.100006" target-x="247.5" target-y="197.2"></path><path d="M 290.30 244.10 L 247.50 218.10 L 248.40 203.30 L 300.70 237.20 Z" fill="url(#SVGID_3_)" fill-rule="nonzero" node-id="103" stroke="none" target-height="40.800003" target-width="53.200012" target-x="247.5" target-y="203.3"></path><path d="M 252.00 320.80 L 197.10 286.70 L 211.80 276.90 L 254.60 302.90 Z" fill="#8ab9fe" fill-rule="nonzero" node-id="105" stroke="none" target-height="43.899994" target-width="57.5" target-x="197.1" target-y="276.9"></path><path d="M 190.70 334.90 L 189.20 342.80 L 188.20 353.10 L 188.60 357.60 L 189.70 359.30 L 191.70 359.40 L 195.60 357.60 L 203.40 351.40 L 208.90 346.00 L 190.70 334.90 Z" fill="#f09c9e" fill-rule="nonzero" node-id="107" stroke="none" target-height="24.5" target-width="20.699997" target-x="188.2" target-y="334.9"></path><path d="M 155.80 315.80 L 160.20 311.80 L 163.90 309.20 L 168.20 306.80 L 173.60 304.40 L 177.50 303.20 L 181.80 302.20 L 186.60 301.60 L 191.50 301.50 L 196.70 301.90 L 202.60 303.10 L 211.20 306.00 L 221.10 311.00 L 226.00 314.30 L 230.20 317.50 L 233.70 320.80 L 236.70 324.10 L 240.20 328.90 L 242.90 333.50 L 245.00 338.10 L 246.50 342.90 L 247.50 347.40 L 248.20 356.00 L 247.80 363.20 L 247.00 368.00 L 245.20 374.30 L 155.80 315.80 Z" fill="url(#SVGID_4_)" fill-rule="nonzero" node-id="109" stroke="none" target-height="72.79999" target-width="92.399994" target-x="155.8" target-y="301.5"></path><path d="M 155.80 315.80 L 245.20 374.30 L 246.70 369.30 L 159.30 312.60 L 155.80 315.80 Z" fill="#f1624a" fill-rule="nonzero" node-id="111" stroke="none" target-height="61.69998" target-width="90.899994" target-x="155.8" target-y="312.6"></path><path d="M 451.10 425.00 L 490.70 360.90 L 334.30 265.30 L 324.60 265.50 L 320.20 266.00 L 309.80 267.90 L 304.50 269.50 L 301.10 270.80 L 294.70 274.30 L 291.90 276.50 L 289.50 279.00 L 287.40 281.90 L 285.80 285.00 L 284.70 288.30 L 284.00 291.60 L 283.70 295.00 L 284.00 301.70 L 284.90 306.70 L 287.80 315.80 L 289.30 319.40 L 293.30 327.10 L 451.10 425.00 Z" fill="#d2e0ff" fill-rule="nonzero" node-id="113" stroke="none" target-height="159.70001" target-width="207" target-x="283.7" target-y="265.3"></path><g node-id="182"><g node-id="184"><g clip-path="url(#SVGID_6__7)" group-id="2,4" node-id="117"><path d="M 306.40 339.00 L 347.70 270.90 L 352.00 273.50 L 310.70 341.60 Z" fill="#9eb2fa" fill-rule="nonzero" group-id="2,4" node-id="119" stroke="none" target-height="70.70001" target-width="45.600006" target-x="306.4" target-y="270.9"></path></g></g><g node-id="185"><g clip-path="url(#SVGID_6__8)" group-id="2,5" node-id="122"><path d="M 336.80 357.50 L 378.20 289.40 L 382.50 292.00 L 341.10 360.10 Z" fill="#9eb2fa" fill-rule="nonzero" group-id="2,5" node-id="124" stroke="none" target-height="70.70001" target-width="45.700012" target-x="336.8" target-y="289.4"></path></g></g><g node-id="186"><g clip-path="url(#SVGID_6__9)" group-id="2,6" node-id="127"><path d="M 366.80 374.30 L 408.20 306.20 L 412.50 308.80 L 371.10 376.90 Z" fill="#9eb2fa" fill-rule="nonzero" group-id="2,6" node-id="129" stroke="none" target-height="70.69998" target-width="45.700012" target-x="366.8" target-y="306.2"></path></g></g><g node-id="187"><g clip-path="url(#SVGID_6__10)" group-id="2,7" node-id="132"><path d="M 392.60 391.40 L 433.90 323.20 L 438.20 325.90 L 396.90 394.00 Z" fill="#9eb2fa" fill-rule="nonzero" group-id="2,7" node-id="134" stroke="none" target-height="70.79999" target-width="45.600006" target-x="392.6" target-y="323.2"></path></g></g><g node-id="188"><g clip-path="url(#SVGID_6__11)" group-id="2,8" node-id="137"><path d="M 421.00 408.60 L 462.30 340.50 L 466.60 343.10 L 425.30 411.20 Z" fill="#9eb2fa" fill-rule="nonzero" group-id="2,8" node-id="139" stroke="none" target-height="70.70001" target-width="45.600006" target-x="421" target-y="340.5"></path></g></g><g clip-path="url(#SVGID_6__12)" group-id="2,9" node-id="142"><path d="M 287.90 281.00 L 471.50 392.50 L 468.90 396.80 L 285.30 285.30 Z" fill="#9eb2fa" fill-rule="nonzero" group-id="2,9" node-id="144" stroke="none" target-height="115.79999" target-width="186.20001" target-x="285.3" target-y="281"></path></g></g><path d="M 49.00 94.10 L 9.40 158.20 L 165.80 253.80 L 175.50 253.60 L 179.90 253.10 L 190.30 251.20 L 195.60 249.60 L 199.00 248.30 L 205.30 244.80 L 208.20 242.60 L 210.60 240.00 L 212.70 237.20 L 214.30 234.00 L 215.40 230.80 L 216.10 227.50 L 216.40 224.10 L 216.10 217.40 L 215.20 212.40 L 212.30 203.30 L 210.80 199.60 L 206.80 192.00 L 49.00 94.10 Z" fill="#d2e0ff" fill-rule="nonzero" node-id="148" stroke="none" target-height="159.70001" target-width="207" target-x="9.4" target-y="94.1"></path><g node-id="183"><g node-id="190"><g clip-path="url(#SVGID_8__7)" group-id="3,10" node-id="152"><path d="M 193.70 180.10 L 152.30 248.20 L 148.00 245.60 L 189.40 177.50 Z" fill="#9eb2fa" fill-rule="nonzero" group-id="3,10" node-id="154" stroke="none" target-height="70.7" target-width="45.699997" target-x="148" target-y="177.5"></path></g></g><g node-id="191"><g clip-path="url(#SVGID_8__8)" group-id="3,11" node-id="157"><path d="M 163.30 161.60 L 121.90 229.70 L 117.60 227.10 L 159.00 159.00 Z" fill="#9eb2fa" fill-rule="nonzero" group-id="3,11" node-id="159" stroke="none" target-height="70.7" target-width="45.700005" target-x="117.6" target-y="159"></path></g></g><g node-id="192"><g clip-path="url(#SVGID_8__9)" group-id="3,12" node-id="162"><path d="M 133.30 144.80 L 91.90 212.90 L 87.60 210.30 L 129.00 142.20 Z" fill="#9eb2fa" fill-rule="nonzero" group-id="3,12" node-id="164" stroke="none" target-height="70.7" target-width="45.700005" target-x="87.6" target-y="142.2"></path></g></g><g node-id="193"><g clip-path="url(#SVGID_8__10)" group-id="3,13" node-id="167"><path d="M 107.50 127.70 L 66.10 195.90 L 61.80 193.20 L 103.20 125.10 Z" fill="#9eb2fa" fill-rule="nonzero" group-id="3,13" node-id="169" stroke="none" target-height="70.799995" target-width="45.7" target-x="61.8" target-y="125.1"></path></g></g><g node-id="194"><g clip-path="url(#SVGID_8__11)" group-id="3,14" node-id="172"><path d="M 79.10 110.50 L 37.70 178.60 L 33.40 176.00 L 74.80 107.90 Z" fill="#9eb2fa" fill-rule="nonzero" group-id="3,14" node-id="174" stroke="none" target-height="70.700005" target-width="45.699997" target-x="33.4" target-y="107.9"></path></g></g><g clip-path="url(#SVGID_8__12)" group-id="3,15" node-id="177"><path d="M 212.10 238.10 L 28.60 126.60 L 31.20 122.30 L 214.70 233.80 Z" fill="#9eb2fa" fill-rule="nonzero" group-id="3,15" node-id="179" stroke="none" target-height="115.8" target-width="186.09999" target-x="28.6" target-y="122.3"></path></g></g></svg>